<?xml version="1.0" standalone="no"?>
<!DOCTYPE svg PUBLIC "-//W3C//DTD SVG 20010904//EN"
 "http://www.w3.org/TR/2001/REC-SVG-20010904/DTD/svg10.dtd">
<svg version="1.0" xmlns="http://www.w3.org/2000/svg"
 width="1000.000000pt" height="1000.000000pt" viewBox="0 0 1000.000000 1000.000000"
 preserveAspectRatio="xMidYMid meet">
<metadata>
Created by potrace 1.11, written by Peter Selinger 2001-2013
</metadata>
<g transform="translate(0.000000,1000.000000) scale(0.100000,-0.100000)"
fill="#000000" stroke="none">
<path d="M4829 9996 c-2 -2 -35 -6 -74 -10 -276 -26 -578 -115 -835 -249 -92
-48 -324 -196 -365 -234 -11 -10 -47 -40 -80 -68 -94 -77 -2873 -2861 -2941
-2945 -290 -360 -457 -750 -517 -1210 -14 -103 -16 -461 -3 -540 3 -19 8 -55
11 -80 9 -68 33 -186 56 -270 11 -41 22 -82 24 -91 2 -9 24 -70 50 -135 56
-145 135 -303 206 -415 134 -212 170 -251 1649 -1729 789 -790 1470 -1463
1513 -1497 218 -174 475 -315 732 -402 98 -33 236 -69 289 -76 15 -3 35 -7 45
-9 16 -5 39 -8 186 -25 76 -9 422 -6 495 4 248 33 418 79 670 181 145 59 372
196 530 322 58 46 655 636 1515 1497 781 781 1431 1434 1445 1450 279 336 442
673 524 1080 13 66 28 154 32 195 11 95 11 423 1 514 -53 478 -249 923 -566
1290 -92 105 -2866 2870 -2941 2930 -187 151 -410 280 -635 369 -140 55 -377
117 -502 132 -27 3 -60 8 -74 11 -26 6 -434 15 -440 10z m301 -3360 c617 -44
1172 -456 1398 -1038 39 -101 87 -274 96 -353 27 -224 23 -377 -16 -570 -106
-529 -468 -973 -968 -1187 -95 -41 -268 -92 -344 -102 -28 -4 -52 -9 -56 -11
-10 -6 -162 -17 -245 -16 -79 0 -185 7 -237 16 -16 3 -43 7 -60 10 -123 21
-295 79 -430 145 -267 132 -528 371 -670 615 -163 279 -242 565 -239 865 3
266 58 495 176 730 255 508 774 856 1335 895 52 4 96 8 97 9 2 2 68 -1 163 -8z"/>
</g>
</svg>
